<?xml version="1.0" encoding="UTF-8" standalone="no"?><svg xmlns="http://www.w3.org/2000/svg" xmlns:xlink="http://www.w3.org/1999/xlink" contentScriptType="application/ecmascript" contentStyleType="text/css" height="808px" preserveAspectRatio="none" style="width:683px;height:808px;" version="1.1" viewBox="0 0 683 808" width="683.2px" zoomAndPan="magnify"><defs><filter height="300%" id="f1bddk88ttqrkr" width="300%" x="-1" y="-1"><feGaussianBlur result="blurOut" stdDeviation="3.200000047683716"/><feColorMatrix in="blurOut" result="blurOut2" type="matrix" values="0 0 0 0 0 0 0 0 0 0 0 0 0 0 0 0 0 0 .4 0"/><feOffset dx="6.400000095367432" dy="6.400000095367432" in="blurOut2" result="blurOut3"/><feBlend in="SourceGraphic" in2="blurOut3" mode="normal"/></filter></defs><g><rect fill="#000000" filter="url(#f1bddk88ttqrkr)" height="554.7625" style="stroke: #A80036; stroke-width: 1.600000023841858;" width="16" x="208.8" y="149.4875"/><rect fill="#FFFF00" filter="url(#f1bddk88ttqrkr)" height="157.8625" style="stroke: #A80036; stroke-width: 1.600000023841858;" width="16" x="335.2" y="234.7125"/><rect fill="#0000FF" filter="url(#f1bddk88ttqrkr)" height="157.65" style="stroke: #A80036; stroke-width: 1.600000023841858;" width="16" x="466.4" y="488.7875"/><rect fill="#FFFFFF" filter="url(#f1bddk88ttqrkr)" height="628.7875" style="stroke: #000000; stroke-width: 3.200000047683716;" width="644.8" x="20.8" y="88.475"/><rect fill="#FFFFFF" filter="url(#f1bddk88ttqrkr)" height="231.675" style="stroke: #000000; stroke-width: 3.200000047683716;" width="348.8" x="155.2" y="173.7"/><rect fill="#FFFFFF" filter="url(#f1bddk88ttqrkr)" height="231.675" style="stroke: #000000; stroke-width: 3.200000047683716;" width="494.4" x="155.2" y="427.775"/><line style="stroke: #A80036; stroke-width: 1.600000023841858; stroke-dasharray: 5.0,5.0;" x1="75.2" x2="75.2" y1="61.275" y2="744.4625"/><line style="stroke: #A80036; stroke-width: 1.600000023841858; stroke-dasharray: 5.0,5.0;" x1="216" x2="216" y1="61.275" y2="744.4625"/><line style="stroke: #A80036; stroke-width: 1.600000023841858; stroke-dasharray: 5.0,5.0;" x1="342.4" x2="342.4" y1="61.275" y2="744.4625"/><line style="stroke: #A80036; stroke-width: 1.600000023841858; stroke-dasharray: 5.0,5.0;" x1="473.6" x2="473.6" y1="61.275" y2="744.4625"/><rect fill="#FEFECE" filter="url(#f1bddk88ttqrkr)" height="48.475" style="stroke: #A80036; stroke-width: 2.400000035762787;" width="72" x="36.8" y="4.8"/><text fill="#000000" font-family="sans-serif" font-size="22.4" lengthAdjust="spacingAndGlyphs" textLength="49.6" x="48" y="36.7922">user</text><rect fill="#FEFECE" filter="url(#f1bddk88ttqrkr)" height="48.475" style="stroke: #A80036; stroke-width: 2.400000035762787;" width="72" x="36.8" y="742.8625"/><text fill="#000000" font-family="sans-serif" font-size="22.4" lengthAdjust="spacingAndGlyphs" textLength="49.6" x="48" y="774.8547">user</text><rect fill="#FEFECE" filter="url(#f1bddk88ttqrkr)" height="48.475" style="stroke: #A80036; stroke-width: 2.400000035762787;" width="84.8" x="171.2" y="4.8"/><text fill="#000000" font-family="sans-serif" font-size="22.4" lengthAdjust="spacingAndGlyphs" textLength="62.4" x="182.4" y="36.7922">client</text><rect fill="#FEFECE" filter="url(#f1bddk88ttqrkr)" height="48.475" style="stroke: #A80036; stroke-width: 2.400000035762787;" width="84.8" x="171.2" y="742.8625"/><text fill="#000000" font-family="sans-serif" font-size="22.4" lengthAdjust="spacingAndGlyphs" textLength="62.4" x="182.4" y="774.8547">client</text><rect fill="#FEFECE" filter="url(#f1bddk88ttqrkr)" height="48.475" style="stroke: #A80036; stroke-width: 2.400000035762787;" width="123.2" x="278.4" y="4.8"/><text fill="#000000" font-family="sans-serif" font-size="22.4" lengthAdjust="spacingAndGlyphs" textLength="100.8" x="289.6" y="36.7922">resource</text><rect fill="#FEFECE" filter="url(#f1bddk88ttqrkr)" height="48.475" style="stroke: #A80036; stroke-width: 2.400000035762787;" width="123.2" x="278.4" y="742.8625"/><text fill="#000000" font-family="sans-serif" font-size="22.4" lengthAdjust="spacingAndGlyphs" textLength="100.8" x="289.6" y="774.8547">resource</text><rect fill="#FEFECE" filter="url(#f1bddk88ttqrkr)" height="48.475" style="stroke: #A80036; stroke-width: 2.400000035762787;" width="94.4" x="424" y="4.8"/><text fill="#000000" font-family="sans-serif" font-size="22.4" lengthAdjust="spacingAndGlyphs" textLength="72" x="435.2" y="36.7922">server</text><rect fill="#FEFECE" filter="url(#f1bddk88ttqrkr)" height="48.475" style="stroke: #A80036; stroke-width: 2.400000035762787;" width="94.4" x="424" y="742.8625"/><text fill="#000000" font-family="sans-serif" font-size="22.4" lengthAdjust="spacingAndGlyphs" textLength="72" x="435.2" y="774.8547">server</text><rect fill="#000000" filter="url(#f1bddk88ttqrkr)" height="554.7625" style="stroke: #A80036; stroke-width: 1.600000023841858;" width="16" x="208.8" y="149.4875"/><rect fill="#FFFF00" filter="url(#f1bddk88ttqrkr)" height="157.8625" style="stroke: #A80036; stroke-width: 1.600000023841858;" width="16" x="335.2" y="234.7125"/><rect fill="#0000FF" filter="url(#f1bddk88ttqrkr)" height="157.65" style="stroke: #A80036; stroke-width: 1.600000023841858;" width="16" x="466.4" y="488.7875"/><path d="M20.8,88.475 L252.8,88.475 L252.8,99.675 L236.8,115.675 L20.8,115.675 L20.8,88.475 " fill="#EEEEEE" style="stroke: #000000; stroke-width: 1.600000023841858;"/><rect fill="none" height="628.7875" style="stroke: #000000; stroke-width: 3.200000047683716;" width="644.8" x="20.8" y="88.475"/><text fill="#000000" font-family="sans-serif" font-size="20.8" font-weight="bold" lengthAdjust="spacingAndGlyphs" textLength="160" x="44.8" y="109.382">responsetime</text><polygon fill="#A80036" points="189.6,143.0875,205.6,149.4875,189.6,155.8875,196,149.4875" style="stroke: #A80036; stroke-width: 1.600000023841858;"/><line style="stroke: #A80036; stroke-width: 1.600000023841858;" x1="76" x2="199.2" y1="149.4875" y2="149.4875"/><text fill="#000000" font-family="sans-serif" font-size="20.8" lengthAdjust="spacingAndGlyphs" textLength="78.4" x="87.2" y="141.5945">request</text><path d="M155.2,173.7 L329.6,173.7 L329.6,184.9 L313.6,200.9 L155.2,200.9 L155.2,173.7 " fill="#EEEEEE" style="stroke: #000000; stroke-width: 1.600000023841858;"/><rect fill="none" height="231.675" style="stroke: #000000; stroke-width: 3.200000047683716;" width="348.8" x="155.2" y="173.7"/><text fill="#000000" font-family="sans-serif" font-size="20.8" font-weight="bold" lengthAdjust="spacingAndGlyphs" textLength="102.4" x="179.2" y="194.607">waittime</text><polygon fill="#A80036" points="316,228.3125,332,234.7125,316,241.1125,322.4,234.7125" style="stroke: #A80036; stroke-width: 1.600000023841858;"/><line style="stroke: #A80036; stroke-width: 1.600000023841858;" x1="224.8" x2="325.6" y1="234.7125" y2="234.7125"/><text fill="#000000" font-family="sans-serif" font-size="20.8" lengthAdjust="spacingAndGlyphs" textLength="44.8" x="236" y="226.8195">wait</text><path d="M358.4,255.725 L358.4,367.725 L481.6,367.725 L481.6,271.725 L465.6,255.725 L358.4,255.725 " fill="#FBFB77" filter="url(#f1bddk88ttqrkr)" style="stroke: #A80036; stroke-width: 1.600000023841858;"/><path d="M465.6,255.725 L465.6,271.725 L481.6,271.725 L465.6,255.725 " fill="#FBFB77" style="stroke: #A80036; stroke-width: 1.600000023841858;"/><text fill="#000000" font-family="sans-serif" font-size="20.8" lengthAdjust="spacingAndGlyphs" textLength="57.6" x="368" y="283.032">client</text><text fill="#000000" font-family="sans-serif" font-size="20.8" lengthAdjust="spacingAndGlyphs" textLength="56" x="368" y="307.2445">waits</text><text fill="#000000" font-family="sans-serif" font-size="20.8" lengthAdjust="spacingAndGlyphs" textLength="28.8" x="368" y="331.457">for</text><text fill="#000000" font-family="sans-serif" font-size="20.8" lengthAdjust="spacingAndGlyphs" textLength="89.6" x="368" y="355.6695">resource</text><polygon fill="#A80036" points="242.4,386.175,226.4,392.575,242.4,398.975,236,392.575" style="stroke: #A80036; stroke-width: 1.600000023841858;"/><line style="stroke: #A80036; stroke-width: 1.600000023841858;" x1="232.8" x2="341.6" y1="392.575" y2="392.575"/><path d="M155.2,427.775 L363.2,427.775 L363.2,438.975 L347.2,454.975 L155.2,454.975 L155.2,427.775 " fill="#EEEEEE" style="stroke: #000000; stroke-width: 1.600000023841858;"/><rect fill="none" height="231.675" style="stroke: #000000; stroke-width: 3.200000047683716;" width="494.4" x="155.2" y="427.775"/><text fill="#000000" font-family="sans-serif" font-size="20.8" font-weight="bold" lengthAdjust="spacingAndGlyphs" textLength="136" x="179.2" y="448.682">servicetime</text><line style="stroke: #A80036; stroke-width: 1.600000023841858;" x1="463.2" x2="447.2" y1="488.7875" y2="482.3875"/><line style="stroke: #A80036; stroke-width: 1.600000023841858;" x1="463.2" x2="447.2" y1="488.7875" y2="495.1875"/><line style="stroke: #A80036; stroke-width: 1.600000023841858;" x1="224.8" x2="464.8" y1="488.7875" y2="488.7875"/><text fill="#000000" font-family="sans-serif" font-size="20.8" lengthAdjust="spacingAndGlyphs" textLength="78.4" x="236" y="480.8945">request</text><path d="M489.6,509.8 L489.6,597.8 L627.2,597.8 L627.2,525.8 L611.2,509.8 L489.6,509.8 " fill="#FBFB77" filter="url(#f1bddk88ttqrkr)" style="stroke: #A80036; stroke-width: 1.600000023841858;"/><path d="M611.2,509.8 L611.2,525.8 L627.2,525.8 L611.2,509.8 " fill="#FBFB77" style="stroke: #A80036; stroke-width: 1.600000023841858;"/><text fill="#000000" font-family="sans-serif" font-size="20.8" lengthAdjust="spacingAndGlyphs" textLength="65.6" x="499.2" y="537.107">server</text><text fill="#000000" font-family="sans-serif" font-size="20.8" lengthAdjust="spacingAndGlyphs" textLength="104" x="499.2" y="561.3195">processes</text><text fill="#000000" font-family="sans-serif" font-size="20.8" lengthAdjust="spacingAndGlyphs" textLength="78.4" x="499.2" y="585.532">request</text><line style="stroke: #A80036; stroke-width: 1.600000023841858;" x1="224.8" x2="240.8" y1="646.4375" y2="640.0375"/><line style="stroke: #A80036; stroke-width: 1.600000023841858;" x1="224.8" x2="240.8" y1="646.4375" y2="652.8375"/><line style="stroke: #A80036; stroke-width: 1.600000023841858;" x1="224.8" x2="472.8" y1="646.4375" y2="646.4375"/><text fill="#000000" font-family="sans-serif" font-size="20.8" lengthAdjust="spacingAndGlyphs" textLength="94.4" x="252" y="638.5445">response</text><polygon fill="#A80036" points="93.6,697.85,77.6,704.25,93.6,710.65,87.2,704.25" style="stroke: #A80036; stroke-width: 1.600000023841858;"/><line style="stroke: #A80036; stroke-width: 1.600000023841858;" x1="84" x2="215.2" y1="704.25" y2="704.25"/><text fill="#000000" font-family="sans-serif" font-size="20.8" lengthAdjust="spacingAndGlyphs" textLength="94.4" x="103.2" y="696.357">response</text><!--
@startuml
Participant user as u
Participant client as c
Participant resource as cr
Participant server as s

group responsetime
 u -> c: request
 activate c #Black
 group waittime
  c -> cr: wait
  activate cr #Yellow
  note right of cr: client\nwaits\nfor\nresource
  cr -> c:
  deactivate cr
 end

 group servicetime
  c ->> s: request
  activate s #Blue
  note right of s: server\nprocesses\nrequest
  s ->> c: response
  deactivate s
 end
 c -> u: response
 deactivate c
end

@enduml

PlantUML version 1.2018.01(Sun Jan 28 12:08:22 CST 2018)
(GPL source distribution)
Java Runtime: OpenJDK Runtime Environment
JVM: OpenJDK 64-Bit Server VM
Java Version: 1.8.0_152-release-1248-b8
Operating System: Linux
OS Version: 4.15.0-33-generic
Default Encoding: UTF-8
Language: en
Country: US
--></g></svg>