<?xml version="1.0" encoding="UTF-8" standalone="no"?>
<!-- Created with Inkscape (http://www.inkscape.org/) -->

<svg
   xmlns:dc="http://purl.org/dc/elements/1.1/"
   xmlns:cc="http://creativecommons.org/ns#"
   xmlns:rdf="http://www.w3.org/1999/02/22-rdf-syntax-ns#"
   xmlns:svg="http://www.w3.org/2000/svg"
   xmlns="http://www.w3.org/2000/svg"
   xmlns:sodipodi="http://sodipodi.sourceforge.net/DTD/sodipodi-0.dtd"
   xmlns:inkscape="http://www.inkscape.org/namespaces/inkscape"
   width="297mm"
   height="210mm"
   viewBox="0 0 297 210"
   version="1.1"
   id="svg8"
   inkscape:version="0.92.3 (unknown)"
   sodipodi:docname="hybrid_ratelimiter_sketch.svg"
   inkscape:export-filename="/home/jshook/IdeaProjects/nosqlbench/docs/hybrid_ratelimiter_sketch.png"
   inkscape:export-xdpi="188.85001"
   inkscape:export-ydpi="188.85001">
  <defs
     id="defs2">
    <inkscape:perspective
       sodipodi:type="inkscape:persp3d"
       inkscape:vp_x="0 : 105 : 1"
       inkscape:vp_y="0 : 1000 : 0"
       inkscape:vp_z="297 : 105 : 1"
       inkscape:persp3d-origin="148.5 : 70 : 1"
       id="perspective1025" />
    <marker
       inkscape:stockid="Arrow1Lend"
       orient="auto"
       refY="0.0"
       refX="0.0"
       id="marker2159"
       style="overflow:visible;"
       inkscape:isstock="true">
      <path
         id="path2157"
         d="M 0.0,0.0 L 5.0,-5.0 L -12.5,0.0 L 5.0,5.0 L 0.0,0.0 z "
         style="fill-rule:evenodd;stroke:#ededed;stroke-width:1pt;stroke-opacity:1;fill:#ededed;fill-opacity:1"
         transform="scale(0.8) rotate(180) translate(12.5,0)" />
    </marker>
    <marker
       inkscape:isstock="true"
       style="overflow:visible;"
       id="marker2131"
       refX="0.0"
       refY="0.0"
       orient="auto"
       inkscape:stockid="Arrow1Lend">
      <path
         transform="scale(0.8) rotate(180) translate(12.5,0)"
         style="fill-rule:evenodd;stroke:#ededed;stroke-width:1pt;stroke-opacity:1;fill:#ededed;fill-opacity:1"
         d="M 0.0,0.0 L 5.0,-5.0 L -12.5,0.0 L 5.0,5.0 L 0.0,0.0 z "
         id="path2129" />
    </marker>
    <marker
       inkscape:stockid="Arrow1Lend"
       orient="auto"
       refY="0.0"
       refX="0.0"
       id="marker2087"
       style="overflow:visible;"
       inkscape:isstock="true">
      <path
         id="path2085"
         d="M 0.0,0.0 L 5.0,-5.0 L -12.5,0.0 L 5.0,5.0 L 0.0,0.0 z "
         style="fill-rule:evenodd;stroke:#969696;stroke-width:1pt;stroke-opacity:1;fill:#969696;fill-opacity:1"
         transform="scale(0.8) rotate(180) translate(12.5,0)" />
    </marker>
    <marker
       inkscape:isstock="true"
       style="overflow:visible;"
       id="marker2083"
       refX="0.0"
       refY="0.0"
       orient="auto"
       inkscape:stockid="Arrow1Lend">
      <path
         transform="scale(0.8) rotate(180) translate(12.5,0)"
         style="fill-rule:evenodd;stroke:#969696;stroke-width:1pt;stroke-opacity:1;fill:#969696;fill-opacity:1"
         d="M 0.0,0.0 L 5.0,-5.0 L -12.5,0.0 L 5.0,5.0 L 0.0,0.0 z "
         id="path2081" />
    </marker>
    <marker
       inkscape:stockid="Arrow1Lend"
       orient="auto"
       refY="0.0"
       refX="0.0"
       id="marker1640"
       style="overflow:visible;"
       inkscape:isstock="true">
      <path
         id="path1638"
         d="M 0.0,0.0 L 5.0,-5.0 L -12.5,0.0 L 5.0,5.0 L 0.0,0.0 z "
         style="fill-rule:evenodd;stroke:#000000;stroke-width:1pt;stroke-opacity:1;fill:#000000;fill-opacity:1"
         transform="scale(0.8) rotate(180) translate(12.5,0)" />
    </marker>
    <marker
       inkscape:stockid="Arrow1Lend"
       orient="auto"
       refY="0.0"
       refX="0.0"
       id="marker1501"
       style="overflow:visible;"
       inkscape:isstock="true">
      <path
         id="path1499"
         d="M 0.0,0.0 L 5.0,-5.0 L -12.5,0.0 L 5.0,5.0 L 0.0,0.0 z "
         style="fill-rule:evenodd;stroke:#000000;stroke-width:1pt;stroke-opacity:1;fill:#000000;fill-opacity:1"
         transform="scale(0.8) rotate(180) translate(12.5,0)" />
    </marker>
    <marker
       inkscape:isstock="true"
       style="overflow:visible;"
       id="marker1475"
       refX="0.0"
       refY="0.0"
       orient="auto"
       inkscape:stockid="Arrow1Lend"
       inkscape:collect="always">
      <path
         transform="scale(0.8) rotate(180) translate(12.5,0)"
         style="fill-rule:evenodd;stroke:#000000;stroke-width:1pt;stroke-opacity:1;fill:#000000;fill-opacity:1"
         d="M 0.0,0.0 L 5.0,-5.0 L -12.5,0.0 L 5.0,5.0 L 0.0,0.0 z "
         id="path1473" />
    </marker>
    <marker
       inkscape:isstock="true"
       style="overflow:visible;"
       id="marker1467"
       refX="0.0"
       refY="0.0"
       orient="auto"
       inkscape:stockid="Arrow1Lend">
      <path
         transform="scale(0.8) rotate(180) translate(12.5,0)"
         style="fill-rule:evenodd;stroke:#000000;stroke-width:1pt;stroke-opacity:1;fill:#000000;fill-opacity:1"
         d="M 0.0,0.0 L 5.0,-5.0 L -12.5,0.0 L 5.0,5.0 L 0.0,0.0 z "
         id="path1465" />
    </marker>
    <marker
       inkscape:stockid="Arrow1Lend"
       orient="auto"
       refY="0.0"
       refX="0.0"
       id="marker1435"
       style="overflow:visible;"
       inkscape:isstock="true"
       inkscape:collect="always">
      <path
         id="path1433"
         d="M 0.0,0.0 L 5.0,-5.0 L -12.5,0.0 L 5.0,5.0 L 0.0,0.0 z "
         style="fill-rule:evenodd;stroke:#000000;stroke-width:1pt;stroke-opacity:1;fill:#000000;fill-opacity:1"
         transform="scale(0.8) rotate(180) translate(12.5,0)" />
    </marker>
    <marker
       inkscape:stockid="Arrow1Lend"
       orient="auto"
       refY="0.0"
       refX="0.0"
       id="marker1431"
       style="overflow:visible;"
       inkscape:isstock="true"
       inkscape:collect="always">
      <path
         id="path1171"
         d="M 0.0,0.0 L 5.0,-5.0 L -12.5,0.0 L 5.0,5.0 L 0.0,0.0 z "
         style="fill-rule:evenodd;stroke:#000000;stroke-width:1pt;stroke-opacity:1;fill:#000000;fill-opacity:1"
         transform="scale(0.8) rotate(180) translate(12.5,0)" />
    </marker>
    <marker
       inkscape:stockid="Arrow1Lend"
       orient="auto"
       refY="0.0"
       refX="0.0"
       id="marker4804"
       style="overflow:visible;"
       inkscape:isstock="true">
      <path
         id="path4802"
         d="M 0.0,0.0 L 5.0,-5.0 L -12.5,0.0 L 5.0,5.0 L 0.0,0.0 z "
         style="fill-rule:evenodd;stroke:#7d7d7d;stroke-width:1pt;stroke-opacity:1;fill:#7d7d7d;fill-opacity:1"
         transform="scale(0.8) rotate(180) translate(12.5,0)" />
    </marker>
    <marker
       inkscape:stockid="Arrow1Lend"
       orient="auto"
       refY="0.0"
       refX="0.0"
       id="Arrow1Lend"
       style="overflow:visible;"
       inkscape:isstock="true">
      <path
         id="path4529"
         d="M 0.0,0.0 L 5.0,-5.0 L -12.5,0.0 L 5.0,5.0 L 0.0,0.0 z "
         style="fill-rule:evenodd;stroke:#7d7d7d;stroke-width:1pt;stroke-opacity:1;fill:#7d7d7d;fill-opacity:1"
         transform="scale(0.8) rotate(180) translate(12.5,0)" />
    </marker>
    <marker
       inkscape:stockid="Arrow1Lend"
       orient="auto"
       refY="0"
       refX="0"
       id="marker1431-1"
       style="overflow:visible"
       inkscape:isstock="true">
      <path
         inkscape:connector-curvature="0"
         id="path1171-0"
         d="M 0,0 5,-5 -12.5,0 5,5 Z"
         style="fill:#000000;fill-opacity:1;fill-rule:evenodd;stroke:#000000;stroke-width:1.00000003pt;stroke-opacity:1"
         transform="matrix(-0.8,0,0,-0.8,-10,0)" />
    </marker>
    <marker
       inkscape:stockid="Arrow1Lend"
       orient="auto"
       refY="0"
       refX="0"
       id="marker1435-1"
       style="overflow:visible"
       inkscape:isstock="true">
      <path
         inkscape:connector-curvature="0"
         id="path1433-3"
         d="M 0,0 5,-5 -12.5,0 5,5 Z"
         style="fill:#000000;fill-opacity:1;fill-rule:evenodd;stroke:#000000;stroke-width:1.00000003pt;stroke-opacity:1"
         transform="matrix(-0.8,0,0,-0.8,-10,0)" />
    </marker>
    <marker
       inkscape:isstock="true"
       style="overflow:visible"
       id="marker1475-7"
       refX="0"
       refY="0"
       orient="auto"
       inkscape:stockid="Arrow1Lend">
      <path
         inkscape:connector-curvature="0"
         transform="matrix(-0.8,0,0,-0.8,-10,0)"
         style="fill:#000000;fill-opacity:1;fill-rule:evenodd;stroke:#000000;stroke-width:1.00000003pt;stroke-opacity:1"
         d="M 0,0 5,-5 -12.5,0 5,5 Z"
         id="path1473-2" />
    </marker>
    <marker
       inkscape:stockid="Arrow1Lend"
       orient="auto"
       refY="0"
       refX="0"
       id="marker1640-5"
       style="overflow:visible"
       inkscape:isstock="true">
      <path
         inkscape:connector-curvature="0"
         id="path1638-1"
         d="M 0,0 5,-5 -12.5,0 5,5 Z"
         style="fill:#000000;fill-opacity:1;fill-rule:evenodd;stroke:#000000;stroke-width:1.00000003pt;stroke-opacity:1"
         transform="matrix(-0.8,0,0,-0.8,-10,0)" />
    </marker>
  </defs>
  <sodipodi:namedview
     id="base"
     pagecolor="#ffffff"
     bordercolor="#666666"
     borderopacity="1.0"
     inkscape:pageopacity="0.0"
     inkscape:pageshadow="2"
     inkscape:zoom="5.6568543"
     inkscape:cx="382.87291"
     inkscape:cy="497.31295"
     inkscape:document-units="mm"
     inkscape:current-layer="layer3"
     showgrid="true"
     inkscape:window-width="3840"
     inkscape:window-height="1965"
     inkscape:window-x="0"
     inkscape:window-y="2160"
     inkscape:window-maximized="1">
    <inkscape:grid
       type="xygrid"
       id="grid815"
       dotted="false" />
  </sodipodi:namedview>
  <metadata
     id="metadata5">
    <rdf:RDF>
      <cc:Work
         rdf:about="">
        <dc:format>image/svg+xml</dc:format>
        <dc:type
           rdf:resource="http://purl.org/dc/dcmitype/StillImage" />
        <dc:title />
      </cc:Work>
    </rdf:RDF>
  </metadata>
  <g
     inkscape:groupmode="layer"
     id="layer1"
     inkscape:label="dividers"
     style="display:none">
    <path
       style="display:inline;fill:none;stroke:#ededed;stroke-width:1;stroke-linecap:butt;stroke-linejoin:miter;stroke-miterlimit:4;stroke-dasharray:none;stroke-opacity:1"
       d="M 110.06667,74.533333 V 104.16667"
       id="path2056"
       inkscape:connector-curvature="0"
       inkscape:export-xdpi="90.650002"
       inkscape:export-ydpi="90.650002" />
    <path
       style="display:inline;fill:none;stroke:#ededed;stroke-width:1;stroke-linecap:butt;stroke-linejoin:miter;stroke-miterlimit:4;stroke-dasharray:none;stroke-opacity:1"
       d="M 101.6,74.533333 V 104.16667"
       id="path2056-0"
       inkscape:connector-curvature="0"
       inkscape:export-xdpi="90.650002"
       inkscape:export-ydpi="90.650002" />
    <path
       style="display:inline;fill:none;stroke:#ededed;stroke-width:1;stroke-linecap:butt;stroke-linejoin:miter;stroke-miterlimit:4;stroke-dasharray:none;stroke-opacity:1"
       d="M 67.733337,74.533333 V 104.16667"
       id="path2056-4"
       inkscape:connector-curvature="0"
       inkscape:export-xdpi="90.650002"
       inkscape:export-ydpi="90.650002" />
  </g>
  <g
     inkscape:groupmode="layer"
     id="layer3"
     inkscape:label="braces"
     style="display:inline">
    <rect
       style="opacity:1;vector-effect:none;fill:#ffffff;fill-opacity:1;stroke:#000000;stroke-width:0.02645833;stroke-linecap:butt;stroke-linejoin:miter;stroke-miterlimit:4;stroke-dasharray:none;stroke-dashoffset:0;stroke-opacity:1"
       id="rect1104"
       width="79.375"
       height="29.104174"
       x="55.5625"
       y="75.062492" />
    <path
       sodipodi:nodetypes="ccccccccccccccccccccc"
       inkscape:connector-curvature="0"
       id="path4994-6-0"
       d="m 105.83333,91.443669 -0.10942,-0.38556 c -0.0398,-0.611433 -0.21108,-0.916913 -0.51363,-0.916913 l -2.4042,0.02088 c -0.36621,0 -0.65803,-0.253876 -0.87563,-0.761074 -0.22026,-0.50027 -0.33045,-1.22274 -0.33045,-2.167673 0.10032,0.0014 0.14342,0.479619 0.14342,0.479619 l 0.0397,0.385576 c 0.11676,0.799027 0.42061,1.209085 0.91155,1.229929 l 2.28875,0.08334 c 0.34568,0.01924 0.72562,0.473633 0.84998,1.150679 0.1244,-0.6769 0.50408,-1.131532 0.84972,-1.150679 l 2.28875,-0.08334 c 0.49094,-0.02088 0.79479,-0.430902 0.91155,-1.229929 l 0.0397,-0.385576 c 0,0 0.0431,-0.478151 0.14342,-0.479619 0,0.944933 -0.11019,1.667403 -0.33045,2.167669 -0.21761,0.507198 -0.50942,0.761074 -0.87563,0.761074 l -2.40421,-0.02088 c -0.30254,0 -0.47382,0.30548 -0.51363,0.916913 -0.10942,0.38556 -0.10942,0.38556 -0.10942,0.38556 z"
       style="font-style:normal;font-variant:normal;font-weight:normal;font-stretch:normal;font-size:13.08687019px;line-height:1.25;font-family:OpenSymbol;-inkscape-font-specification:OpenSymbol;letter-spacing:10.08199883px;word-spacing:8.54225349px;fill:#000000;fill-opacity:1;stroke:#000000;stroke-width:0.1;stroke-miterlimit:4;stroke-dasharray:none;stroke-opacity:1"
       inkscape:export-xdpi="188.85001"
       inkscape:export-ydpi="188.85001" />
    <path
       sodipodi:nodetypes="cccccccccccccccccccccccccc"
       inkscape:connector-curvature="0"
       id="path4994-6-0-4-0"
       d="m 84.66671,91.466666 -0.109422,-0.387697 c -0.03981,-0.614826 -0.211084,-0.921986 -0.513626,-0.921986 l -1.318321,0.01142 -13.785928,0.0098 c -0.36621,0 -0.658025,-0.255279 -0.875631,-0.765298 -0.22026,-0.503039 -0.330448,-1.229504 -0.330448,-2.179673 0.100315,0.0014 0.143415,0.482277 0.143415,0.482277 l 0.03974,0.387713 c 0.116761,0.803447 0.420616,1.215788 0.911549,1.236746 l 13.888567,0.04338 1.100229,0.04028 c 0.345685,0.01941 0.725625,0.476259 0.849979,1.157057 0.124404,-0.680651 0.504082,-1.137811 0.849718,-1.157057 l 1.096705,-0.04012 13.892054,-0.04355 c 0.49093,-0.02104 0.79478,-0.433299 0.91155,-1.236746 l 0.0397,-0.387713 c 0,0 0.0431,-0.480793 0.14342,-0.482277 0,0.950169 -0.11019,1.676634 -0.33045,2.179673 -0.2176,0.510019 -0.50942,0.765298 -0.87563,0.765298 l -13.7631,-0.0098 -1.341102,-0.01142 c -0.302541,0 -0.473827,0.30716 -0.513632,0.921986 l -0.109422,0.387697 z"
       style="font-style:normal;font-variant:normal;font-weight:normal;font-stretch:normal;font-size:13.08687019px;line-height:1.25;font-family:OpenSymbol;-inkscape-font-specification:OpenSymbol;letter-spacing:10.08199883px;word-spacing:8.54225349px;display:inline;fill:#000000;fill-opacity:1;stroke:#000000;stroke-width:0.1;stroke-miterlimit:4;stroke-dasharray:none;stroke-opacity:1"
       inkscape:export-xdpi="188.85001"
       inkscape:export-ydpi="188.85001" />
    <path
       sodipodi:nodetypes="ccccccccccccscccscccc"
       inkscape:connector-curvature="0"
       id="path4994-6-0-0"
       d="m 114.30004,91.443669 -0.10942,-0.38556 c -0.0398,-0.611433 -0.21109,-0.916913 -0.51363,-0.916913 l -2.4042,0.02088 c -0.36621,0 -0.65803,-0.253876 -0.87563,-0.761074 -0.22026,-0.500266 -0.33045,-1.222736 -0.33045,-2.167669 0.10031,0.0014 0.14341,0.479619 0.14341,0.479619 l 0.0397,0.385576 c 0.11676,0.799027 0.42061,1.209085 0.91155,1.229929 l 2.28875,0.08334 c 0.34568,0.01924 0.72562,0.473633 0.84998,1.150679 0.1244,-0.6769 0.50408,-1.131532 0.84971,-1.150679 0,0 1.5263,-0.04501 2.28876,-0.08334 1.02037,-0.05121 14.26874,-0.418154 14.26874,-0.418154 l 1.64269,0.89159 -1.66189,0.849203 c 0,0 -13.46931,-0.440515 -14.3609,-0.48902 -0.80025,-0.04355 -2.40421,-0.02088 -2.40421,-0.02088 -0.30254,0 -0.47382,0.30548 -0.51363,0.916913 L 114.3,91.443669 Z"
       style="font-style:normal;font-variant:normal;font-weight:normal;font-stretch:normal;font-size:13.08687019px;line-height:1.25;font-family:OpenSymbol;-inkscape-font-specification:OpenSymbol;letter-spacing:10.08199883px;word-spacing:8.54225349px;display:inline;fill:none;fill-opacity:1;stroke:#000000;stroke-width:0.1;stroke-miterlimit:4;stroke-dasharray:none;stroke-opacity:1"
       inkscape:export-xdpi="188.85001"
       inkscape:export-ydpi="188.85001" />
    <path
       d="m 131.01288,90.188575 q -0.0482,-0.05595 -0.12433,-0.186487 -0.10412,0.186487 -0.19581,0.268851 -0.11499,0.09946 -0.29371,0.09946 -0.2098,0 -0.3481,-0.156957 -0.14609,-0.164729 -0.14609,-0.436687 0,-0.261081 0.14609,-0.438241 0.13053,-0.156961 0.35121,-0.156961 0.11344,0 0.19736,0.04662 0.0979,0.05129 0.16473,0.139865 0.0622,0.07926 0.12432,0.186483 0.10412,-0.186483 0.19581,-0.268847 0.11501,-0.09946 0.29372,-0.09946 0.2098,0 0.34811,0.156958 0.14608,0.164729 0.14608,0.436686 0,0.261082 -0.14608,0.438242 -0.13054,0.156957 -0.35122,0.156957 -0.11344,0 -0.19737,-0.04662 -0.0839,-0.04196 -0.16472,-0.139864 z m -0.63094,-0.02176 q 0.25642,0 0.41026,-0.372972 -0.19736,-0.407159 -0.41026,-0.407159 -0.15541,0 -0.23466,0.111893 -0.0855,0.119661 -0.0855,0.278174 0,0.174053 0.0855,0.281281 0.087,0.108783 0.23466,0.108783 z m 1.01324,-0.777021 q -0.23156,0 -0.41028,0.372971 0.19581,0.40716 0.41028,0.40716 0.1554,0 0.23466,-0.111893 0.0855,-0.119662 0.0855,-0.278174 0,-0.174054 -0.0855,-0.281281 -0.087,-0.108783 -0.23466,-0.108783 z"
       style="font-style:normal;font-variant:normal;font-weight:normal;font-stretch:normal;font-size:medium;line-height:1.25;font-family:sans-serif;-inkscape-font-specification:OpenSymbol;letter-spacing:0px;word-spacing:0px;vector-effect:none;fill:#050023;fill-opacity:1;stroke:none;stroke-width:0.72470975;stroke-linecap:butt;stroke-linejoin:miter;stroke-miterlimit:4;stroke-dasharray:none;stroke-dashoffset:0;stroke-opacity:1"
       id="path1109"
       inkscape:connector-curvature="0"
       inkscape:export-xdpi="188.85001"
       inkscape:export-ydpi="188.85001" />
    <text
       id="text1114"
       y="93.535225"
       x="80.366043"
       style="font-style:normal;font-variant:normal;font-weight:normal;font-stretch:normal;font-size:10.58333302px;line-height:1.25;font-family:sans-serif;-inkscape-font-specification:OpenSymbol;letter-spacing:0px;word-spacing:0px;fill:#000000;fill-opacity:1;stroke:none;stroke-width:0.26458332"
       xml:space="preserve"
       inkscape:export-xdpi="188.85001"
       inkscape:export-ydpi="188.85001"><tspan
         style="font-size:2.82222199px;stroke-width:0.26458332"
         y="93.535225"
         x="80.366043"
         id="tspan1112"
         sodipodi:role="line">active</tspan></text>
    <text
       id="text1118"
       y="93.233032"
       x="102.11585"
       style="font-style:normal;font-variant:normal;font-weight:normal;font-stretch:normal;font-size:10.58333302px;line-height:1.25;font-family:sans-serif;-inkscape-font-specification:OpenSymbol;letter-spacing:0px;word-spacing:0px;fill:#000000;fill-opacity:1;stroke:none;stroke-width:0.26458332"
       xml:space="preserve"
       inkscape:export-xdpi="188.85001"
       inkscape:export-ydpi="188.85001"><tspan
         style="font-size:2.82222199px;stroke-width:0.26458332"
         y="93.233032"
         x="102.11585"
         id="tspan1116"
         sodipodi:role="line">burst</tspan></text>
    <text
       id="text1122"
       y="93.195877"
       x="111.30794"
       style="font-style:normal;font-variant:normal;font-weight:normal;font-stretch:normal;font-size:10.58333302px;line-height:1.25;font-family:sans-serif;-inkscape-font-specification:OpenSymbol;letter-spacing:0px;word-spacing:0px;fill:#000000;fill-opacity:1;stroke:none;stroke-width:0.26458332"
       xml:space="preserve"
       inkscape:export-xdpi="188.85001"
       inkscape:export-ydpi="188.85001"><tspan
         style="font-size:2.82222199px;stroke-width:0.26458332"
         y="93.195877"
         x="111.30794"
         id="tspan1120"
         sodipodi:role="line">wait</tspan></text>
    <path
       style="fill:none;stroke:#000000;stroke-width:0.26499999;stroke-linecap:butt;stroke-linejoin:miter;stroke-miterlimit:4;stroke-dasharray:none;stroke-opacity:1;marker-start:url(#marker1431);marker-end:url(#marker1435)"
       d="m 67.733333,78.766667 h 6.330709 c 1.0669,0.04027 2.110809,0.928831 2.135958,2.126243 v 4.223757"
       id="path1166"
       inkscape:connector-curvature="0"
       sodipodi:nodetypes="cccc"
       inkscape:export-xdpi="188.85001"
       inkscape:export-ydpi="188.85001" />
    <path
       style="opacity:1;vector-effect:none;fill:none;fill-opacity:1;stroke:#000000;stroke-width:0.26499999;stroke-linecap:butt;stroke-linejoin:miter;stroke-miterlimit:4;stroke-dasharray:none;stroke-dashoffset:0;stroke-opacity:1;marker-end:url(#marker1475)"
       d="m 74.083333,78.766667 c 2.116667,0 3.006299,0.06907 4.313132,0.04208 2.036868,-0.04208 21.782585,-0.238843 35.903535,-0.04208 1.21139,0.02829 2.06952,1.009 2.11667,2.116663 v 4.233339"
       id="path1437"
       inkscape:connector-curvature="0"
       sodipodi:nodetypes="csccc"
       inkscape:export-xdpi="188.85001"
       inkscape:export-ydpi="188.85001" />
    <path
       style="opacity:1;vector-effect:none;fill:none;fill-opacity:1;stroke:#000000;stroke-width:0.26499999;stroke-linecap:butt;stroke-linejoin:miter;stroke-miterlimit:4;stroke-dasharray:none;stroke-dashoffset:0;stroke-opacity:1;marker-end:url(#marker1501)"
       d="m 112.18333,89.35 v -6.352517 c 0,-2.11415 -4.23333,-2.11415 -4.23333,-0.0943 v 4.33015"
       id="path1477"
       inkscape:connector-curvature="0"
       sodipodi:nodetypes="cccc"
       inkscape:export-xdpi="188.85001"
       inkscape:export-ydpi="188.85001" />
    <path
       inkscape:connector-curvature="0"
       id="path1507"
       style="font-style:normal;font-weight:normal;font-size:medium;line-height:1.25;font-family:sans-serif;letter-spacing:0px;word-spacing:0px;fill:#000000;fill-opacity:1;stroke:none;stroke-width:0.1089268"
       d="m 58.538652,77.608182 -1.021989,2.044587 h 2.04647 z m -1.704976,2.349641 1.420813,-2.710985 h 0.570818 l 1.418321,2.710985 z"
       inkscape:export-xdpi="188.85001"
       inkscape:export-ydpi="188.85001" />
    <path
       inkscape:connector-curvature="0"
       id="path1509"
       style="font-style:normal;font-weight:normal;font-size:medium;line-height:1.25;font-family:sans-serif;letter-spacing:0px;word-spacing:0px;fill:#000000;fill-opacity:1;stroke:none;stroke-width:0.08632495"
       d="m 59.14259,79.943673 v -0.328037 h 0.248615 v -0.587008 l 0.176103,-0.03798 q 0.210634,-0.04489 0.338395,-0.162291 0.131229,-0.117407 0.165744,-0.390189 0.04144,-0.328033 0.196821,-0.580103 0.155385,-0.255522 0.404002,-0.400548 0.252067,-0.145021 0.57665,-0.145021 0.321128,0 0.569745,0.145021 0.252067,0.14502 0.407452,0.400548 0.15884,0.25207 0.200276,0.580103 0.03452,0.272787 0.162287,0.390189 0.131214,0.117406 0.341848,0.162291 l 0.176104,0.03798 v 0.587008 h 0.248619 v 0.328037 H 62.143245 V 79.805556 H 60.35114 v 0.138117 z m 2.10633,-0.618087 q 0.186462,0 0.352205,-0.06905 0.165745,-0.07252 0.290053,-0.196822 0.12431,-0.12431 0.193369,-0.290053 0.07252,-0.165742 0.07252,-0.352205 0,-0.186464 -0.07252,-0.352205 -0.06905,-0.165744 -0.193369,-0.290052 -0.12431,-0.12431 -0.290053,-0.193368 -0.165743,-0.07252 -0.352205,-0.07252 -0.186463,0 -0.352207,0.07252 -0.165743,0.06905 -0.29005,0.193368 -0.12431,0.12431 -0.196821,0.290052 -0.06905,0.165741 -0.06905,0.352205 0,0.186463 0.06905,0.352205 0.07252,0.165745 0.196821,0.290053 0.12431,0.12431 0.29005,0.196822 0.165744,0.06905 0.352207,0.06905 z m 0,-0.756206 q -0.06561,0 -0.110503,-0.04489 -0.04489,-0.04489 -0.04489,-0.110502 l -0.334939,-0.196817 0.07252,-0.120859 0.334942,0.189915 0.01032,-0.0034 v -0.690601 h 0.145021 v 0.690601 q 0.03452,0.02071 0.05524,0.05524 0.02416,0.03452 0.02416,0.07941 0,0.06216 -0.04489,0.107036 -0.04489,0.04489 -0.107035,0.04489 z m 0.393642,-0.770019 q -0.02416,0 -0.04489,-0.01727 -0.01726,-0.02073 -0.01726,-0.04144 0,-0.02416 0.01726,-0.04144 0.02073,-0.01726 0.04144,-0.01726 0.02763,0 0.04144,0.02073 0.01728,0.02073 0.01728,0.03799 0,0.02416 -0.01728,0.04144 -0.01724,0.01727 -0.03798,0.01727 z m -0.787285,0 q -0.02073,0 -0.04144,-0.01727 -0.01726,-0.01726 -0.01726,-0.04144 0,-0.02416 0.01726,-0.04144 0.01727,-0.01726 0.04144,-0.01726 0.02416,0 0.04144,0.01726 0.01727,0.01727 0.01727,0.04144 0,0.03452 -0.02416,0.04834 -0.02416,0.01032 -0.03452,0.01032 z m 1.073886,0.286597 q -0.02418,0 -0.04144,-0.01727 -0.01727,-0.01726 -0.01727,-0.04144 0,-0.02416 0.01387,-0.04144 0.01726,-0.02073 0.04489,-0.02073 0.02073,0 0.03798,0.01727 0.01727,0.01727 0.01727,0.04489 0,0.03108 -0.02416,0.04489 -0.02073,0.01387 -0.0311,0.01387 z m -1.360485,0 q -0.02761,0 -0.04489,-0.01727 -0.01387,-0.02073 -0.01387,-0.04144 0,-0.02761 0.01727,-0.04489 0.02073,-0.01727 0.04144,-0.01727 0.02073,0 0.03798,0.01727 0.02073,0.01727 0.02073,0.04489 0,0.02763 -0.01727,0.04489 -0.01726,0.01387 -0.04144,0.01387 z m 0.680242,0.39019 q 0.02418,0 0.04144,-0.01727 0.01727,-0.01727 0.01727,-0.04144 0,-0.02418 -0.01727,-0.04144 -0.01726,-0.01727 -0.04144,-0.01727 -0.02418,0 -0.04144,0.01727 -0.01726,0.01727 -0.01726,0.04144 0,0.02416 0.01726,0.04144 0.01727,0.01727 0.04144,0.01727 z m 0.78383,0 q -0.02418,0 -0.04144,-0.01727 -0.01387,-0.01727 -0.01387,-0.04144 0,-0.02418 0.01387,-0.04144 0.01727,-0.01727 0.04144,-0.01727 0.02418,0 0.04144,0.01727 0.01727,0.01727 0.01727,0.04144 0,0.02416 -0.01727,0.04144 -0.01727,0.01727 -0.04144,0.01727 z m -1.567662,0 q -0.02763,0 -0.04489,-0.01727 -0.01387,-0.01727 -0.01387,-0.04144 0,-0.02418 0.01387,-0.04144 0.01726,-0.01727 0.04489,-0.01727 0.02416,0 0.03798,0.01727 0.01727,0.01727 0.01727,0.04144 0,0.02416 -0.01727,0.04144 -0.01387,0.01727 -0.03798,0.01727 z m 0.1036,0.393642 q -0.02073,0 -0.04144,-0.01728 -0.01726,-0.01726 -0.01726,-0.04144 0,-0.03108 0.02416,-0.04489 0.02416,-0.01727 0.03452,-0.01727 0.02073,0 0.03799,0.01727 0.02073,0.01726 0.02073,0.04489 0,0.02073 -0.01726,0.04144 -0.01387,0.01728 -0.04144,0.01728 z m 1.360484,0 q -0.02763,0 -0.04489,-0.01728 -0.01387,-0.02073 -0.01387,-0.04144 0,-0.02416 0.01727,-0.04144 0.01726,-0.01726 0.04144,-0.01726 0.05524,0 0.05524,0.05524 0,0.02763 -0.01727,0.04489 -0.01728,0.01728 -0.03798,0.01728 z m -0.286601,0.2866 q -0.02416,0 -0.04489,-0.01387 -0.01726,-0.01727 -0.01726,-0.04489 0,-0.02416 0.01726,-0.04144 0.01727,-0.01727 0.04489,-0.01727 0.02073,0 0.03798,0.01727 0.01727,0.01387 0.01727,0.04144 0,0.02073 -0.01727,0.04144 -0.01387,0.01726 -0.03798,0.01726 z m -0.787285,0 q -0.02416,0 -0.04144,-0.01727 -0.01726,-0.02073 -0.01726,-0.04144 0,-0.02761 0.01726,-0.04144 0.02073,-0.01726 0.04144,-0.01726 0.03452,0 0.04489,0.02073 0.01387,0.02073 0.01387,0.03799 0,0.02763 -0.01727,0.04489 -0.01727,0.01387 -0.04144,0.01387 z m 0.393643,0.103599 q -0.02418,0 -0.04144,-0.01387 -0.01726,-0.01726 -0.01726,-0.04489 0,-0.02416 0.01726,-0.03799 0.01727,-0.01727 0.04144,-0.01727 0.02418,0 0.04144,0.01727 0.01726,0.01387 0.01726,0.03799 0,0.02763 -0.01726,0.04489 -0.01727,0.01387 -0.04144,0.01387 z"
       inkscape:export-xdpi="188.85001"
       inkscape:export-ydpi="188.85001" />
    <text
       xml:space="preserve"
       style="font-style:normal;font-weight:normal;font-size:10.58333302px;line-height:1.25;font-family:sans-serif;letter-spacing:0px;word-spacing:0px;fill:#000000;fill-opacity:1;stroke:none;stroke-width:0.26458332"
       x="77.238121"
       y="83.363823"
       id="text1532"
       inkscape:export-xdpi="188.85001"
       inkscape:export-ydpi="188.85001"><tspan
         sodipodi:role="line"
         id="tspan1530"
         x="77.238121"
         y="83.363823"
         style="font-size:2.82222223px;stroke-width:0.26458332">1</tspan></text>
    <text
       xml:space="preserve"
       style="font-style:normal;font-weight:normal;font-size:10.58333302px;line-height:1.25;font-family:sans-serif;letter-spacing:0px;word-spacing:0px;display:inline;fill:#000000;fill-opacity:1;stroke:none;stroke-width:0.26458332"
       x="117.45479"
       y="85.480492"
       id="text1532-0"
       inkscape:export-xdpi="188.85001"
       inkscape:export-ydpi="188.85001"><tspan
         sodipodi:role="line"
         id="tspan1530-9"
         x="117.45479"
         y="85.480492"
         style="font-size:2.82222223px;stroke-width:0.26458332">2</tspan></text>
    <text
       xml:space="preserve"
       style="font-style:normal;font-weight:normal;font-size:10.58333302px;line-height:1.25;font-family:sans-serif;letter-spacing:0px;word-spacing:0px;display:inline;fill:#000000;fill-opacity:1;stroke:none;stroke-width:0.26458332"
       x="109.41487"
       y="84.546974"
       id="text1532-0-7"
       inkscape:export-xdpi="188.85001"
       inkscape:export-ydpi="188.85001"><tspan
         sodipodi:role="line"
         id="tspan1530-9-5"
         x="109.41487"
         y="84.546974"
         style="font-size:2.82222223px;stroke-width:0.26458332">3</tspan></text>
    <text
       id="text1114-3"
       y="78.380775"
       x="68.256477"
       style="font-style:normal;font-variant:normal;font-weight:normal;font-stretch:normal;font-size:10.58333302px;line-height:1.25;font-family:sans-serif;-inkscape-font-specification:OpenSymbol;letter-spacing:0px;word-spacing:0px;display:inline;fill:#000000;fill-opacity:1;stroke:none;stroke-width:0.26458332"
       xml:space="preserve"
       inkscape:export-xdpi="188.85001"
       inkscape:export-ydpi="188.85001"><tspan
         style="font-size:2.82222199px;stroke-width:0.26458332"
         y="78.380775"
         x="68.256477"
         id="tspan1112-8"
         sodipodi:role="line">refill</tspan></text>
    <flowRoot
       xml:space="preserve"
       id="flowRoot1875"
       style="font-style:normal;font-weight:normal;font-size:10.66666698px;line-height:1.25;font-family:sans-serif;letter-spacing:0px;word-spacing:0px;fill:#000000;fill-opacity:1;stroke:none"
       transform="scale(0.26458333)"
       inkscape:export-xdpi="90.650002"
       inkscape:export-ydpi="90.650002"><flowRegion
         id="flowRegion1877"
         style="font-size:10.66666698px"><rect
           id="rect1879"
           width="200"
           height="40"
           x="304"
           y="257.70078"
           style="font-size:10.66666698px" /></flowRegion><flowPara
         id="flowPara1881" /></flowRoot>    <text
       xml:space="preserve"
       style="font-style:normal;font-weight:normal;font-size:3.52777767px;line-height:1.25;font-family:sans-serif;letter-spacing:0px;word-spacing:0px;fill:#000000;fill-opacity:1;stroke:none;stroke-width:0.26458332"
       x="141.81667"
       y="110.51666"
       id="text1897"
       inkscape:export-xdpi="90.650002"
       inkscape:export-ydpi="90.650002"><tspan
         sodipodi:role="line"
         id="tspan1895"
         x="141.81667"
         y="113.63792"
         style="stroke-width:0.26458332" /></text>
    <text
       id="text1114-0"
       y="98.310852"
       x="85.58918"
       style="font-style:normal;font-variant:normal;font-weight:normal;font-stretch:normal;font-size:10.58333302px;line-height:1.25;font-family:sans-serif;-inkscape-font-specification:OpenSymbol;letter-spacing:0px;word-spacing:0px;display:inline;opacity:1;vector-effect:none;fill:#949494;fill-opacity:1;stroke:none;stroke-width:1;stroke-linecap:butt;stroke-linejoin:miter;stroke-miterlimit:4;stroke-dasharray:none;stroke-dashoffset:0;stroke-opacity:1;"
       xml:space="preserve"
       inkscape:export-xdpi="188.85001"
       inkscape:export-ydpi="188.85001"><tspan
         style="font-style:italic;font-weight:bold;font-size:2.82222199px;vector-effect:none;fill:#949494;fill-opacity:1;stroke:none;stroke-width:1;stroke-linecap:butt;stroke-linejoin:miter;stroke-miterlimit:4;stroke-dasharray:none;stroke-dashoffset:0;stroke-opacity:1;"
         y="98.310852"
         x="85.58918"
         id="tspan1112-9"
         sodipodi:role="line">available</tspan></text>
    <g
       id="g1956"
       transform="translate(0,-2.559597)"
       inkscape:export-xdpi="188.85001"
       inkscape:export-ydpi="188.85001">
      <path
         style="font-style:normal;font-variant:normal;font-weight:normal;font-stretch:normal;font-size:13.08687019px;line-height:1.25;font-family:OpenSymbol;-inkscape-font-specification:OpenSymbol;letter-spacing:10.08199883px;word-spacing:8.54225349px;display:inline;fill:#000000;fill-opacity:1;stroke:none;stroke-width:0.71470124"
         d="m 84.666564,98.702477 -0.109422,-0.19385 c -0.03981,-0.30741 -0.211084,-0.46099 -0.513626,-0.46099 l -9.784987,0.0057 -5.319262,0.005 c -0.36621,0 -0.658025,-0.12764 -0.875631,-0.382645 -0.22026,-0.25152 -0.330448,-0.614755 -0.330448,-1.08984 0.100315,5e-4 0.143415,0.24114 0.143415,0.24114 l 0.03974,0.193855 c 0.116761,0.401725 0.420616,0.607895 0.911549,0.618375 l 5.421901,0.0217 9.566895,0.02015 c 0.345685,0.0097 0.725625,0.238125 0.849979,0.578525 0.124404,-0.340325 0.504082,-0.568905 0.849718,-0.578525 l 1.096705,-0.02005 22.35871,-0.02175 c 0.49093,-0.0105 0.79479,-0.21665 0.91155,-0.618375 l 0.0397,-0.193855 c 0,0 0.0431,-0.240395 0.14342,-0.24114 0,0.475085 -0.11018,0.83832 -0.33044,1.08984 -0.21761,0.255005 -0.50942,0.382645 -0.87563,0.382645 l -22.229766,-0.005 -1.341102,-0.0057 c -0.302541,0 -0.473827,0.15358 -0.513632,0.46099 l -0.109422,0.19385 z"
         id="path4994-6-0-4"
         inkscape:connector-curvature="0"
         sodipodi:nodetypes="cccccccccccccccccccccccccc" />
      <path
         sodipodi:nodetypes="ccsc"
         inkscape:connector-curvature="0"
         id="path1616"
         d="m 84.674306,98.542354 -0.0076,1.833906 c 0,0 0,2.11667 -2.116667,2.11667 H 63.5"
         style="opacity:1;vector-effect:none;fill:none;fill-opacity:1;stroke:#000000;stroke-width:0.26499999;stroke-linecap:butt;stroke-linejoin:miter;stroke-miterlimit:4;stroke-dasharray:none;stroke-dashoffset:0;stroke-opacity:1;marker-end:url(#marker1640)" />
    </g>
    <path
       sodipodi:nodetypes="ccccccccsscssc"
       inkscape:connector-curvature="0"
       id="path4994-6-0-4-4"
       d="m 116.5919,95.49374 -5.31926,0.005 c -0.36621,0 -0.65803,-0.12764 -0.87563,-0.382645 -0.22026,-0.25152 -0.33045,-0.614755 -0.33045,-1.08984 0.10031,5e-4 0.14341,0.24114 0.14341,0.24114 l 0.0397,0.193855 c 0.11676,0.401725 0.42062,0.607895 0.91155,0.618375 l 5.4219,0.0217 c 2.93565,0.0045 9.63606,0.08367 13.81362,0.09876 0.65243,0.0024 0.12011,-0.218605 0.80418,-0.201947 0.74349,0.0181 1.46534,0.200354 2.04745,0.330975 -0.51415,0.110172 -1.32169,0.36346 -2.02005,0.362679 -0.66603,-7.44e-4 -0.16383,-0.155869 -0.82576,-0.15706 -4.20173,-0.0076 -9.95511,0.0051 -13.81066,-0.04099 z"
       style="font-style:normal;font-variant:normal;font-weight:normal;font-stretch:normal;font-size:13.08687019px;line-height:1.25;font-family:OpenSymbol;-inkscape-font-specification:OpenSymbol;letter-spacing:10.08199883px;word-spacing:8.54225349px;display:inline;fill:none;fill-opacity:1;stroke:#000000;stroke-width:0.1;stroke-opacity:1;stroke-miterlimit:4;stroke-dasharray:none"
       inkscape:export-xdpi="188.85001"
       inkscape:export-ydpi="188.85001" />
    <text
       id="text1114-0-7"
       y="98.230682"
       x="111.64234"
       style="font-style:italic;font-variant:normal;font-weight:bold;font-stretch:normal;font-size:2.82222199px;line-height:1.25;font-family:sans-serif;-inkscape-font-specification:OpenSymbol;font-variant-ligatures:normal;font-variant-position:normal;font-variant-caps:normal;font-variant-numeric:normal;font-variant-alternates:normal;font-feature-settings:normal;text-indent:0;text-align:start;text-decoration:none;text-decoration-line:none;text-decoration-style:solid;text-decoration-color:#000000;letter-spacing:0px;word-spacing:0px;text-transform:none;writing-mode:lr-tb;direction:ltr;text-orientation:mixed;dominant-baseline:auto;baseline-shift:baseline;text-anchor:start;white-space:normal;shape-padding:0;display:inline;opacity:1;vector-effect:none;fill:#949494;fill-opacity:1;stroke:none;stroke-width:1;stroke-linecap:butt;stroke-linejoin:miter;stroke-miterlimit:4;stroke-dasharray:none;stroke-dashoffset:0;stroke-opacity:1;font-variant-east_asian:normal;"
       xml:space="preserve"
       inkscape:export-xdpi="188.85001"
       inkscape:export-ydpi="188.85001"><tspan
         style="font-style:italic;font-variant:normal;font-weight:bold;font-stretch:normal;font-size:2.82222199px;line-height:1.25;font-family:sans-serif;-inkscape-font-specification:OpenSymbol;font-variant-ligatures:normal;font-variant-position:normal;font-variant-caps:normal;font-variant-numeric:normal;font-variant-alternates:normal;font-feature-settings:normal;text-indent:0;text-align:start;text-decoration:none;text-decoration-line:none;text-decoration-style:solid;text-decoration-color:#000000;letter-spacing:0px;word-spacing:0px;text-transform:none;writing-mode:lr-tb;direction:ltr;text-orientation:mixed;dominant-baseline:auto;baseline-shift:baseline;text-anchor:start;white-space:normal;shape-padding:0;vector-effect:none;fill:#949494;fill-opacity:1;stroke:none;stroke-width:1;stroke-linecap:butt;stroke-linejoin:miter;stroke-miterlimit:4;stroke-dasharray:none;stroke-dashoffset:0;stroke-opacity:1;font-variant-east_asian:normal;"
         y="98.230682"
         x="111.64234"
         id="tspan1112-9-1"
         sodipodi:role="line">in-reserve</tspan></text>
  </g>
</svg>
