<svg width="407.5" height="552" version="1.1" baseProfile="full" viewbox="0 0 407.5 552" xmlns="http://www.w3.org/2000/svg" xmlns:xlink="http://www.w3.org/1999/xlink" xmlns:ev="http://www.w3.org/2001/xml-events" style="font-weight:bold; font-size:12pt; font-family:'Calibri', Helvetica, sans-serif;;stroke-width:3;stroke-linejoin:round;stroke-linecap:round"><path d="M265.8 43.5 L265.8 63.5 L265.8 83.5 L265.8 83.5 " style="stroke:#33322E;fill:none;stroke-dasharray:none;"></path>
<path d="M265.8 114.5 L265.8 134.5 L265.8 154.5 L265.8 154.5 " style="stroke:#33322E;fill:none;stroke-dasharray:none;"></path>
<path d="M260.4 141.2 L265.8 147.8 L271.1 141.2 L265.8 154.5 Z" style="stroke:#33322E;fill:#33322E;stroke-dasharray:none;"></path>
<path d="M227.4 185.5 L178 205.5 L178 225.5 L178 225.5 " style="stroke:#33322E;fill:none;stroke-dasharray:none;"></path>
<path d="M304.1 185.5 L353.5 205.5 L353.5 225.5 L353.5 225.5 " style="stroke:#33322E;fill:none;stroke-dasharray:none;"></path>
<path d="M178 256.5 L178 276.5 L178 296.5 L178 296.5 " style="stroke:#33322E;fill:none;stroke-dasharray:none;"></path>
<path d="M172.7 283.2 L178 289.8 L183.3 283.2 L178 296.5 Z" style="stroke:#33322E;fill:#33322E;stroke-dasharray:none;"></path>
<path d="M169.3 327.5 L158 347.5 L169.3 367.5 L169.3 367.5 " style="stroke:#33322E;fill:none;stroke-dasharray:none;"></path>
<path d="M136.5 325 L64.5 347.5 L64.5 367.5 L64.5 367.5 " style="stroke:#33322E;fill:none;stroke-dasharray:none;"></path>
<path d="M64.5 398.5 L64.5 418.5 L64.5 438.5 L64.5 438.5 " style="stroke:#33322E;fill:none;stroke-dasharray:none;"></path>
<path d="M59.2 425.2 L64.5 431.8 L69.8 425.2 L64.5 438.5 Z" style="stroke:#33322E;fill:#33322E;stroke-dasharray:none;"></path>
<path d="M64.5 469.5 L64.5 489.5 L238.8 521.7 L238.8 521.7 " style="stroke:#33322E;fill:none;stroke-dasharray:none;"></path>
<path d="M224.7 524.5 L232.2 520.5 L226.6 514.1 L238.8 521.7 Z" style="stroke:#33322E;fill:#33322E;stroke-dasharray:none;"></path>
<path d="M219.5 326.9 L277 347.5 L277 367.5 L277 367.5 " style="stroke:#33322E;fill:none;stroke-dasharray:none;"></path>
<path d="M277 398.5 L277 418.5 L277 438.5 L277 438.5 " style="stroke:#33322E;fill:none;stroke-dasharray:none;"></path>
<path d="M271.7 425.2 L277 431.8 L282.3 425.2 L277 438.5 Z" style="stroke:#33322E;fill:#33322E;stroke-dasharray:none;"></path>
<path d="M277 469.5 L277 489.5 L263.7 509.5 L263.7 509.5 " style="stroke:#33322E;fill:none;stroke-dasharray:none;"></path>
<path d="M266.6 495.4 L267.4 503.9 L275.5 501.3 L263.7 509.5 Z" style="stroke:#33322E;fill:#33322E;stroke-dasharray:none;"></path>
<path d="M186.7 367.5 L198 347.5 L186.7 327.5 L186.7 327.5 " style="stroke:#33322E;fill:none;stroke-dasharray:none;"></path>
<path d="M197.9 336.5 L190 333.3 L188.6 341.7 L186.7 327.5 Z" style="stroke:#33322E;fill:#33322E;stroke-dasharray:none;"></path>
<path d="M353.5 256.5 L353.5 276.5 L353.5 296.5 L353.5 296.5 " style="stroke:#33322E;fill:none;stroke-dasharray:none;"></path>
<path d="M348.2 283.2 L353.5 289.8 L358.8 283.2 L353.5 296.5 Z" style="stroke:#33322E;fill:#33322E;stroke-dasharray:none;"></path>
<path d="M353.5 327.5 L353.5 347.5 L353.5 489.5 L353.5 489.5 L268.8 519.2 L268.8 519.2 " style="stroke:#33322E;fill:none;stroke-dasharray:none;"></path>
<path d="M279.6 509.8 L275 517 L283.1 519.9 L268.8 519.2 Z" style="stroke:#33322E;fill:#33322E;stroke-dasharray:none;"></path>
<circle r="12" cx="265.8" cy="28.5" style="stroke:none; fill:#33322E;"></circle>
<circle r="10" cx="253.8" cy="524.5" style="stroke:#33322E;fill:#eee8d5;stroke-dasharray:none;"></circle>
<circle r="6" cx="253.8" cy="524.5" style="stroke:none; fill:#33322E;"></circle>
<text x="241.8" y="105" style="font-weight:normal;">track</text>
<text x="154.8" y="247" style="font-weight:normal;">start</text>
<text x="334.5" y="247" style="font-weight:normal;">skip</text>
<text x="154.8" y="389" style="font-weight:normal;">retry</text>
<text x="31.8" y="389" style="font-weight:normal;">succeed</text>
<text x="258.5" y="389" style="font-weight:normal;">fail</text>
<rect x="224.5" y="154.5" height="31" width="83" style="stroke:#33322E;fill:#eee8d5;stroke-dasharray:none;"></rect>
<text x="232.8" y="176" style="">tracked</text>
<rect x="136.5" y="296.5" height="31" width="83" style="stroke:#33322E;fill:#eee8d5;stroke-dasharray:none;"></rect>
<text x="144.8" y="318" style="">started</text>
<rect x="13.5" y="438.5" height="31" width="102" style="stroke:#33322E;fill:#eee8d5;stroke-dasharray:none;"></rect>
<text x="21.8" y="460" style="">succeeded</text>
<rect x="240.5" y="438.5" height="31" width="73" style="stroke:#33322E;fill:#eee8d5;stroke-dasharray:none;"></rect>
<text x="248.5" y="460" style="">failed</text>
<rect x="312.5" y="296.5" height="31" width="83" style="stroke:#33322E;fill:#eee8d5;stroke-dasharray:none;"></rect>
<text x="320.8" y="318" style="">skipped</text></svg>